<?xml version="1.0" encoding="UTF-8" standalone="no"?><!DOCTYPE svg><svg version="1.1" id="Layer_1" xmlns="http://www.w3.org/2000/svg" xmlns:xlink="http://www.w3.org/1999/xlink" x="0" y="0" width="60" height="60" viewBox="0 0 60 60" enable-background="new 0 0 60 60" xml:space="preserve"><metadata><sfw xmlns="http://ns.adobe.com/SaveForWeb/1.0/"><slices/><sliceSourceBounds y="-57.5" bottomLeftOrigin="true" width="48.4" height="55" x="5.8"/><optimizationSettings><targetSettings targetSettingsID="0" fileFormat="PNG24Format"><PNG24Format transparency="true" filtered="false" matteColor="#FFFFFF" noMatteColor="false" interlaced="false"/></targetSettings></optimizationSettings></sfw></metadata><path d="M5.8,20.1v32.949c0,2.459,1.97,4.451,4.4,4.451h39.6c2.431,0,4.4-1.992,4.4-4.451V20.1H5.8z M17.899,54.201	H9.1V45.4h8.8V54.201z M17.899,43.2H9.1v-8.8h8.8V43.2z M17.899,32.201H9.1V23.4h8.8V32.201z M28.9,54.201h-8.8V45.4h8.8V54.201z M28.9,43.2h-8.8v-8.8h8.8V43.2z M28.9,32.201h-8.8V23.4h8.8V32.201z M39.899,54.201h-8.8V45.4h8.8V54.201z M39.899,43.2h-8.8v-8.8	h8.8V43.2z M39.899,32.201h-8.8V23.4h8.8V32.201z M50.9,54.201h-8.8V45.4h8.8V54.201z M50.9,43.2h-8.8v-8.8h8.8V43.2z M50.9,32.201	h-8.8V23.4h8.8V32.201z" fill="rgb(51,51,51)"/><path d="M49.8,9.1h-7.15V4.15c0-0.911-0.738-1.65-1.649-1.65s-1.649,0.739-1.649,1.65V9.1H20.65V4.15	c0-0.911-0.738-1.65-1.65-1.65c-0.911,0-1.649,0.739-1.649,1.65V9.1H10.2c-2.43,0-4.4,1.993-4.4,4.451v3.799l0,0v0.55h48.4v-0.55	l0,0v-3.799C54.2,11.093,52.23,9.1,49.8,9.1z M19,16.8c-1.822,0-3.299-1.478-3.299-3.3c0-1.22,0.665-2.283,1.65-2.854V13.5	c0,0.912,0.738,1.65,1.649,1.65c0.912,0,1.65-0.738,1.65-1.65v-2.855c0.986,0.571,1.65,1.635,1.65,2.855	C22.3,15.322,20.823,16.8,19,16.8z M41,16.8c-1.822,0-3.3-1.478-3.3-3.3c0-1.22,0.665-2.283,1.65-2.854V13.5	c0,0.912,0.738,1.65,1.649,1.65s1.649-0.738,1.649-1.65v-2.855c0.987,0.571,1.65,1.635,1.65,2.855C44.3,15.322,42.822,16.8,41,16.8z" fill="rgb(51,51,51)"/></svg>