<?xml version="1.0" encoding="UTF-8" standalone="no"?><!DOCTYPE svg><svg xmlns="http://www.w3.org/2000/svg" xmlns:xlink="http://www.w3.org/1999/xlink" version="1.1" x="0px" y="0px" width="100px" height="100px" viewBox="0 0 100 100" enable-background="new 0 0 100 100" xml:space="preserve"><g id="costrução" display="none"/><g id="Layer_1"><path d="M91.788,58.34L77.27,41.686H60.8l-0.55-0.553l-0.726,0.553H19.774L5,48.64l2.012,15.219l8.305,13.93l11.599,9.984h48.77   l0.407-2.431l14.848-14.377l1.682,1.066L95,69.465L91.788,58.34z M77.054,48.471l-0.201-0.089H7.441l12.663-5.909h38.388   l-0.576,0.439v2.641h3.944v-2.801l-0.277-0.279h15.565l14.056,16.199l2.63,9.051L77.054,48.471z" fill="rgb(0,0,0)"/><polygon points="72.802,28.065 73.851,28.852 75.302,28.852 75.302,26.848 74.291,26.09  " fill="rgb(0,0,0)"/><polygon points="77.242,13.284 74.958,12.227 73.889,14.511 76.186,15.58  " fill="rgb(0,0,0)"/><polygon points="76.671,22.952 77.165,19.101 70.245,18.455 69.664,25.049 74.647,25.64  " fill="rgb(0,0,0)"/><polygon points="66.216,31.597 68.625,30.136 68.625,30.07 66.975,27.344 65.579,27.091 63.173,28.553 63.173,28.618    64.822,31.345  " fill="rgb(0,0,0)"/><polygon points="78.47,21.302 82.263,20.029 80.978,16.245 77.195,17.519  " fill="rgb(0,0,0)"/><polygon points="66.874,38.257 68.052,35.972 67.603,33.535 63.135,34.135 63.706,38.706  " fill="rgb(0,0,0)"/></g></svg>