<?xml version="1.0" encoding="UTF-8" standalone="no"?><!DOCTYPE svg><svg version="1.1" id="Layer_1" xmlns="http://www.w3.org/2000/svg" xmlns:xlink="http://www.w3.org/1999/xlink" x="0" y="0" width="60" height="60" viewBox="0 0 60 60" enable-background="new 0 0 60 60" xml:space="preserve"><metadata><sfw xmlns="http://ns.adobe.com/SaveForWeb/1.0/"><slices/><sliceSourceBounds y="-54.562" bottomLeftOrigin="true" width="48.674" height="49.125" x="5.636"/><optimizationSettings><targetSettings targetSettingsID="0" fileFormat="PNG24Format"><PNG24Format transparency="true" filtered="false" matteColor="#FFFFFF" noMatteColor="false" interlaced="false"/></targetSettings></optimizationSettings></sfw></metadata><path d="M29.973,5.438C16.54,5.428,5.648,16.429,5.636,29.984C5.648,43.569,16.54,54.565,29.973,54.562	c13.437,0.003,24.328-10.993,24.338-24.578C54.301,16.429,43.409,5.428,29.973,5.438z M29.973,48.905	c-10.335,0-18.715-8.468-18.704-18.921c-0.011-10.428,8.369-18.892,18.704-18.889c10.341-0.003,18.721,8.461,18.731,18.889	C48.693,40.438,40.312,48.905,29.973,48.905z" fill="rgb(51,51,51)"/><path d="M27.449,38.676l5.5-0.027v-4.252c-0.013-1.154,0.524-2.248,1.967-3.188c1.443-0.949,5.467-2.866,5.473-7.918	c-0.006-5.033-4.232-8.499-7.786-9.246c-3.549-0.724-7.397-0.24-10.123,2.763c-2.449,2.666-2.964,4.785-2.975,9.458h5.5v-1.089	c-0.011-2.487,0.277-5.117,3.826-5.846c1.952-0.381,3.771,0.229,4.859,1.278c1.229,1.214,1.237,3.937-0.742,5.286l-3.083,2.1	c-1.795,1.164-2.412,2.45-2.417,4.331V38.676L27.449,38.676z" fill="rgb(51,51,51)"/><polygon points="27.422,46.458 27.422,40.827 32.975,40.827 32.975,46.458" fill="rgb(51,51,51)"/></svg>